<?xml version="1.0" encoding="UTF-8"?>
<!DOCTYPE svg PUBLIC "-//W3C//DTD SVG 1.1//EN" "http://www.w3.org/Graphics/SVG/1.1/DTD/svg11.dtd">
<svg version="1.1" xmlns="http://www.w3.org/2000/svg" xmlns:xlink="http://www.w3.org/1999/xlink" x="0" y="0" width="370.336" height="135.777" viewBox="0, 0, 370.336, 135.777">
  <g id="Main" transform="translate(-106.95, -58.946)">
    <g>
      <path d="M117.286,90.868 Q117.286,91.36 118.2,91.36 Q118.833,91.36 123.93,90.516 Q129.028,89.672 133.176,89.602 Q128.536,90.868 125.196,92.168 Q121.856,93.469 118.305,95.051 Q114.754,96.633 113.208,97.161 Q111.661,97.688 110.536,97.688 Q106.95,97.688 106.95,93.047 Q106.95,81.094 112.997,76.243 Q115.458,74.274 120.907,71.567 Q126.356,68.86 133.211,66.434 Q140.067,64.008 148.293,62.25 Q156.52,60.493 164.536,60.493 Q172.762,60.493 179.653,62.883 Q186.543,65.274 191.184,69.598 Q195.825,73.922 198.321,80.18 Q200.817,86.438 200.817,94.243 Q200.817,106.125 193.961,117.305 Q187.106,128.485 175.68,137.028 Q164.254,145.571 149.911,150.563 Q135.567,155.555 121.645,155.555 Q119.043,155.555 117.532,154.993 Q116.02,154.43 115.387,152.778 Q114.754,151.125 114.754,147.891 Q114.754,143.883 115.387,141.352 Q116.02,138.821 117.497,135.516 Q127.622,113.086 152.723,79.055 Q147.661,79.618 141.614,81.2 Q135.567,82.782 130.153,84.68 Q124.739,86.579 121.012,88.336 Q117.286,90.094 117.286,90.868 z M154.762,78.633 Q154.762,78.774 155.043,80.215 Q155.325,81.657 155.325,82.711 Q155.325,84.329 153.672,87.247 Q152.02,90.165 147.168,97.618 Q142.317,105.071 138.872,110.696 Q135.426,116.321 130.715,125.18 Q129.239,127.993 128.676,128.977 Q128.114,129.961 126.883,132.211 Q125.653,134.461 125.09,136.079 Q124.528,137.696 124.528,138.54 Q124.528,140.368 126.532,141.106 Q128.536,141.844 132.262,141.844 Q141.825,141.844 152.512,138.364 Q163.2,134.883 172.586,128.696 Q181.973,122.508 187.598,114.704 Q193.223,106.899 193.223,98.391 Q193.223,88.688 186.122,83.45 Q179.02,78.211 165.45,78.211 Q159.754,78.211 154.762,78.633 z" fill="#EEEEEE"/>
      <path d="M289.129,97.266 Q282.239,107.391 277.528,115.618 Q272.817,123.844 270.461,129.645 Q268.106,135.446 268.106,138.258 Q268.106,143.461 272.676,143.461 Q277.528,143.461 294.614,130.243 L294.473,135.094 Q274.715,155.274 265.504,155.274 Q254.536,155.274 254.536,143.883 Q254.536,137.063 261.215,124.547 Q267.895,112.032 281.606,92.204 Q265.504,109.782 254.711,121.102 Q243.918,132.422 232.387,143.04 Q229.645,145.641 227.395,147.786 Q225.145,149.93 222.895,151.161 Q220.645,152.391 217.973,152.391 Q213.825,152.391 211.083,149.157 Q208.34,145.922 208.34,140.016 Q208.34,136.219 210.59,131.192 Q212.84,126.165 217.411,119.485 Q221.981,112.805 228.661,104.86 Q239.489,91.852 243.637,86.508 Q247.786,81.165 247.786,79.688 Q247.786,78.633 246.661,78.633 Q245.325,78.633 242.196,79.864 Q239.067,81.094 233.934,83.872 Q228.801,86.649 220.715,91.782 Q214.668,95.579 208.797,97.934 Q202.926,100.29 200.536,100.29 Q199.129,100.29 198.18,99.516 Q197.231,98.743 197.231,97.547 Q197.231,95.86 198.708,92.028 Q200.184,88.196 202.54,84.083 Q204.895,79.969 206.723,77.93 Q211.786,72.305 220.575,68.016 Q229.364,63.727 238.645,61.407 Q247.926,59.086 253.973,59.086 Q258.473,59.086 260.547,60.598 Q262.622,62.11 262.622,65.555 Q262.622,73.079 260.723,77.192 Q258.825,81.305 254.395,87.844 Q252.778,90.375 249.579,94.77 Q246.379,99.165 243.11,103.348 Q239.84,107.532 237.731,110.344 Q235.622,113.157 233.372,116.532 Q227.254,125.532 225.637,128.133 Q224.02,130.735 224.02,132.633 Q224.02,135.094 226.34,135.094 Q228.45,135.094 230.418,133.583 Q232.387,132.071 238.856,126.446 Q246.309,120.047 253.34,113.016 Q260.372,105.985 266.137,99.622 Q271.903,93.258 280.762,83.133 Q290.676,71.602 293.418,68.719 Q296.161,65.836 297.918,65.836 Q299.465,65.836 300.696,68.333 Q301.926,70.829 301.926,75.329 Q301.926,77.719 299.501,81.692 Q297.075,85.665 289.129,97.266 z" fill="#EEEEEE"/>
      <path d="M332.442,105.141 L328.856,109.36 Q335.114,109.922 340.036,110.872 Q344.958,111.821 349.141,112.981 Q353.325,114.141 356.489,115.407 Q367.598,120.047 367.598,128.344 Q367.598,133.407 362.958,138.258 Q358.317,143.11 350.899,146.907 Q343.481,150.704 335.641,152.848 Q327.801,154.993 321.403,154.993 Q310.715,154.993 304.739,151.02 Q298.762,147.047 298.762,140.157 Q298.762,135.375 302.418,128.907 Q306.075,122.438 313.739,112.805 Q307.973,112.524 305.583,111.083 Q303.192,109.641 303.192,107.04 Q303.192,105.422 304.106,104.579 Q305.02,103.735 306.567,103.348 Q308.114,102.961 312.508,102.399 Q316.903,101.836 323.793,100.993 Q331.458,91.571 337.54,86.825 Q343.622,82.079 350.583,81.375 Q351.145,81.305 351.813,81.305 Q352.481,81.305 352.481,81.657 Q352.481,82.079 350.899,83.907 Q349.317,85.735 345.766,89.743 Q342.215,93.75 337.364,99.235 Q350.583,97.477 358.985,95.192 Q367.387,92.907 371.676,89.743 Q375.965,86.579 375.965,82.711 Q375.965,78 371.395,75.891 Q366.825,73.782 357.403,73.782 Q352.2,73.782 345.485,74.836 Q338.77,75.891 333.321,77.227 Q327.872,78.563 323.618,80.075 Q319.364,81.586 319.364,82.29 Q319.364,82.5 319.786,82.711 Q323.231,83.977 323.231,84.821 Q323.231,85.946 312.684,89.145 Q302.137,92.344 298.481,92.344 Q295.879,92.344 295.879,89.743 Q295.879,86.649 301.54,78.598 Q307.2,70.547 311.84,68.297 Q313.458,67.524 319.364,65.836 Q325.27,64.149 332.336,62.602 Q339.403,61.055 346.715,60 Q354.028,58.946 359.653,58.946 Q372.942,58.946 379.622,63.692 Q386.301,68.438 386.301,75.61 Q386.301,80.461 383.243,84.961 Q380.184,89.461 373.715,93.469 Q367.247,97.477 356.876,100.5 Q346.504,103.524 332.442,105.141 z M324.989,114.211 Q321.333,118.571 318.485,121.911 Q315.637,125.25 314.407,127.325 Q313.176,129.399 313.176,131.508 Q313.176,134.883 316.657,137.52 Q320.137,140.157 326.676,140.157 Q332.723,140.157 339.579,138.012 Q346.434,135.868 351.11,132.422 Q355.786,128.977 355.786,125.461 Q355.786,122.438 352.34,120.469 Q348.895,118.5 341.864,116.989 Q334.833,115.477 324.989,114.211 z" fill="#EEEEEE"/>
      <path d="M434.958,123.704 Q426.52,123.985 422.583,123.985 Q416.536,123.985 405.848,123.704 Q403.598,126.165 400.364,129.504 Q397.129,132.844 394.247,135.692 Q391.364,138.54 389.29,140.543 Q387.215,142.547 385.879,143.883 Q378.075,151.477 375.719,153.797 Q373.364,156.118 370.762,157.981 Q368.161,159.844 365.981,159.844 Q363.52,159.844 363.52,157.594 Q363.52,155.133 367.036,150 Q370.551,144.868 374.981,140.93 Q379.411,136.993 382.223,136.993 Q382.997,136.993 384.403,137.696 L397.762,123.422 Q395.231,123.071 391.153,122.965 Q387.075,122.86 385.668,122.368 Q384.262,121.875 384.262,119.977 Q384.262,116.954 390.731,110.485 Q394.247,106.899 397.34,105.915 Q400.434,104.93 409.153,104.86 Q404.02,105.563 401.876,106.512 Q399.731,107.461 399.52,109.36 Q401.559,109.36 403.282,109.36 Q405.004,109.36 407.782,109.325 Q410.559,109.29 411.895,109.219 Q423.426,97.969 432.848,89.637 Q442.27,81.305 452.711,73.817 Q463.153,66.329 474.965,60.071 Q477.286,63.094 477.286,66.399 Q477.286,69.141 475.493,72.727 Q473.7,76.313 467.899,86.192 Q462.098,96.071 456.122,107.18 Q458.09,107.18 459.391,107.215 Q460.692,107.25 462.168,107.321 Q466.176,107.321 467.055,107.461 Q467.934,107.602 467.934,108.868 Q467.934,109.43 466.844,110.872 Q465.754,112.313 463.012,115.653 Q460.27,118.993 457.668,122.438 L447.333,123.282 Q439.106,138.75 439.106,140.719 Q439.106,143.602 442.129,143.602 Q443.606,143.602 454.364,137.415 L453.801,141.141 Q448.036,145.5 444.836,147.997 Q441.637,150.493 439.282,152.145 Q436.926,153.797 434.993,154.606 Q433.059,155.415 431.09,155.415 Q428.77,155.415 426.52,153.27 Q424.27,151.125 424.27,147.188 Q424.27,145.571 425.465,142.583 Q426.661,139.594 428.032,136.852 Q429.403,134.11 434.958,123.704 z M421.668,107.743 L444.45,107.321 Q448.458,100.5 450.954,96.282 Q453.45,92.063 456.438,87.106 Q459.426,82.149 461.571,78.704 Q463.715,75.258 466.317,70.899 Q461.254,74.063 455.981,77.93 Q450.708,81.797 444.098,87.247 Q437.489,92.696 432.356,97.372 Q427.223,102.047 421.668,107.743 z" fill="#EEEEEE"/>
      <path d="M362.892,194.442 L362.892,177.227 L364.474,177.227 L364.474,178.844 Q365.06,177.836 365.775,177.391 Q366.49,176.946 367.416,176.946 Q368.623,176.946 369.595,177.661 Q370.568,178.375 371.16,179.834 Q371.752,181.293 371.752,183.344 Q371.752,186.52 370.422,188.237 Q369.091,189.954 367.298,189.954 Q366.502,189.954 365.81,189.543 Q365.119,189.133 364.615,188.383 L364.615,194.442 z M364.451,183.52 Q364.451,185.934 365.259,187.077 Q366.068,188.219 367.216,188.219 Q368.318,188.219 369.15,187.036 Q369.982,185.852 369.982,183.379 Q369.982,180.942 369.173,179.77 Q368.365,178.598 367.205,178.598 Q366.162,178.598 365.306,179.858 Q364.451,181.118 364.451,183.52 z" fill="#FFFFFF"/>
      <path d="M373.193,183.45 Q373.193,180.227 374.547,178.586 Q375.9,176.946 377.974,176.946 Q380.013,176.946 381.384,178.586 Q382.756,180.227 382.756,183.321 Q382.756,186.672 381.408,188.313 Q380.06,189.954 377.974,189.954 Q375.923,189.954 374.558,188.307 Q373.193,186.661 373.193,183.45 z M374.963,183.45 Q374.963,185.864 375.841,187.042 Q376.72,188.219 378.021,188.219 Q379.24,188.219 380.113,187.03 Q380.986,185.84 380.986,183.45 Q380.986,181.047 380.107,179.87 Q379.228,178.692 377.927,178.692 Q376.697,178.692 375.83,179.875 Q374.963,181.059 374.963,183.45 z" fill="#FFFFFF"/>
      <path d="M384.806,177.227 L386.529,177.227 L386.529,182.606 Q387.361,182.606 387.695,182.213 Q388.029,181.821 388.673,179.969 Q389.177,178.481 389.5,178.006 Q389.822,177.532 390.226,177.379 Q390.631,177.227 391.638,177.227 L391.896,177.227 L391.896,178.973 L391.381,178.961 Q390.83,178.961 390.595,179.161 Q390.361,179.36 390.197,179.911 Q389.611,181.797 389.271,182.336 Q388.931,182.875 388.193,183.286 Q389.306,183.649 390.384,185.817 L392.283,189.672 L390.384,189.672 L388.533,185.817 Q387.97,184.645 387.543,184.282 Q387.115,183.918 386.529,183.918 L386.529,189.672 L384.806,189.672 z" fill="#FFFFFF"/>
      <path d="M398.904,177.227 L404.775,177.227 L404.775,178.973 L400.627,178.973 L400.627,189.672 L398.904,189.672 z" fill="#FFFFFF"/>
      <path d="M406.041,194.442 L406.041,177.227 L407.623,177.227 L407.623,178.844 Q408.209,177.836 408.923,177.391 Q409.638,176.946 410.564,176.946 Q411.771,176.946 412.744,177.661 Q413.716,178.375 414.308,179.834 Q414.9,181.293 414.9,183.344 Q414.9,186.52 413.57,188.237 Q412.24,189.954 410.447,189.954 Q409.65,189.954 408.959,189.543 Q408.267,189.133 407.763,188.383 L407.763,194.442 z M407.599,183.52 Q407.599,185.934 408.408,187.077 Q409.216,188.219 410.365,188.219 Q411.466,188.219 412.298,187.036 Q413.131,185.852 413.131,183.379 Q413.131,180.942 412.322,179.77 Q411.513,178.598 410.353,178.598 Q409.31,178.598 408.455,179.858 Q407.599,181.118 407.599,183.52 z" fill="#FFFFFF"/>
      <path d="M416.939,194.465 L416.752,192.485 Q417.326,192.672 417.736,192.672 Q418.287,192.672 418.644,192.45 Q419.002,192.227 419.236,191.758 Q419.318,191.594 419.916,189.696 L416.037,177.227 L417.9,177.227 L420.033,184.434 Q420.431,185.782 420.771,187.317 Q421.064,185.864 421.474,184.481 L423.654,177.227 L425.388,177.227 L421.509,189.883 Q420.748,192.344 420.308,193.17 Q419.869,193.997 419.312,194.36 Q418.756,194.723 418.052,194.723 Q417.56,194.723 416.939,194.465 z" fill="#FFFFFF"/>
      <path d="M426.877,177.227 L434.927,177.227 L434.927,189.672 L433.205,189.672 L433.205,178.973 L428.599,178.973 L428.599,189.672 L426.877,189.672 z" fill="#FFFFFF"/>
      <path d="M437.541,177.227 L445.591,177.227 L445.591,189.672 L443.869,189.672 L443.869,178.973 L439.263,178.973 L439.263,189.672 L437.541,189.672 z" fill="#FFFFFF"/>
      <path d="M454.814,188.137 Q453.947,189.04 453.009,189.497 Q452.072,189.954 451.064,189.954 Q449.47,189.954 448.521,188.993 Q447.572,188.032 447.572,186.403 Q447.572,185.325 448.017,184.493 Q448.463,183.661 449.236,183.192 Q450.009,182.723 451.58,182.5 Q453.689,182.196 454.673,181.774 L454.685,181.235 Q454.685,179.958 454.228,179.442 Q453.584,178.692 452.248,178.692 Q451.041,178.692 450.443,179.19 Q449.845,179.688 449.564,181.059 L447.865,180.778 Q448.228,178.774 449.336,177.86 Q450.443,176.946 452.506,176.946 Q454.111,176.946 455.025,177.549 Q455.939,178.153 456.179,179.043 Q456.42,179.934 456.42,181.645 L456.42,184.458 Q456.42,187.411 456.531,188.178 Q456.642,188.946 456.97,189.672 L455.166,189.672 Q454.896,189.028 454.814,188.137 z M454.673,183.426 Q453.724,183.895 451.849,184.223 Q450.759,184.411 450.326,184.651 Q449.892,184.891 449.652,185.331 Q449.412,185.77 449.412,186.344 Q449.412,187.235 449.963,187.768 Q450.513,188.301 451.486,188.301 Q452.412,188.301 453.168,187.821 Q453.923,187.34 454.298,186.538 Q454.673,185.735 454.673,184.2 z" fill="#FFFFFF"/>
    </g>
  </g>
</svg>
