<?xml version="1.0" encoding="UTF-8"?>
<!DOCTYPE svg PUBLIC "-//W3C//DTD SVG 1.1//EN" "http://www.w3.org/Graphics/SVG/1.1/DTD/svg11.dtd">
<svg version="1.1" xmlns="http://www.w3.org/2000/svg" xmlns:xlink="http://www.w3.org/1999/xlink" x="0" y="0" width="418.711" height="381.335" viewBox="0, 0, 418.711, 381.335">
  <g id="Layer_1" transform="translate(-315.09, -287.179)">
    <g>
      <path d="M536.159,615.163 C536.159,602.403 525.562,592.013 512.328,592.013 C499.321,592.013 488.597,602.403 488.597,615.163 C488.597,627.825 499.321,638.191 512.328,638.191 C525.562,638.191 536.159,627.825 536.159,615.163 M512.328,668.513 C482.1,668.513 457.675,644.736 457.675,615.163 C457.675,585.688 482.1,561.813 512.328,561.813 C542.707,561.813 567.182,585.676 567.182,615.163 C567.182,644.736 542.707,668.513 512.328,668.513" fill="#000000"/>
      <path d="M396.513,564.89 C400.449,538.018 411.589,524.521 419.474,522.691 C465.497,512.522 545.634,507.118 578.284,504.92 L496.28,373.117 L520.894,373.117 L600.526,501.371 L651.797,419.909 C654.207,416.188 662.887,406.866 680.65,406.866 L733.801,406.866 L733.801,427.4 L680.65,427.4 C680.65,427.4 674.758,427.093 670.103,431.33 C667.542,433.639 665.763,436.967 661.133,444.373 L625.039,503.385 L725.676,503.385 L725.676,610.269 L588.112,610.269 C585.652,571.411 552.749,540.413 512.126,540.413 C471.503,540.413 438.6,571.399 436.228,610.355 L406,610.355 C398.09,610.355 391.656,604.116 391.656,596.465 L396.513,564.89 z" fill="#000000"/>
      <path d="M315.102,287.179 C338.783,287.179 414.352,319.798 444.681,370.655 L412.889,395.893 C412.889,395.893 379.179,351.397 315.09,339.743 L315.09,287.179 z" fill="#000000"/>
      <path d="M411.009,469.562 C411.009,484.459 423.335,496.52 438.613,496.52 C453.916,496.52 466.33,484.459 466.33,469.562 C466.33,454.788 438.613,392.878 438.613,392.878 C438.613,392.878 411.009,454.788 411.009,469.562" fill="#000000"/>
    </g>
  </g>
</svg>
